<svg width="1338" height="1016" viewBox="0 0 1338 1016" fill="none" xmlns="http://www.w3.org/2000/svg">
<g filter="url(#filter0_d)">
<path d="M296.765 641H240.669L338.837 584.687L394.933 616.866L296.765 673.07V641Z" fill="#7BC1DC"/>
<path d="M878.706 138.202C830.22 93.8467 798.585 63.8419 807.825 69.1688L878.706 110.045V95.9122L807.825 55.0361C788.148 43.7299 770.428 43.4038 758.143 51.9921C747.381 59.4933 176.202 389.655 164.57 394.004C149.676 399.657 140.109 415.637 140.109 439.554C140.109 440.533 140.218 441.511 140.218 442.49H878.706V138.202Z" fill="#007CEB"/>
<path d="M596.704 627.301L206.967 402.156C170.114 380.848 140 398.243 140 440.858C140 483.474 170.114 535.656 206.967 556.964L596.704 782L1189.84 439.554V284.746L596.704 627.301Z" fill="#FFFFFE"/>
<path d="M141.957 460.535L607.249 729.274V713.511L140 443.576C140.217 449.121 140.87 454.774 141.957 460.535Z" fill="#7BC1DC"/>
<path d="M144.566 415.203L607.358 682.202V666.33L151.958 403.57C148.914 406.832 146.414 410.745 144.566 415.203Z" fill="#7BC1DC"/>
<path d="M1189.84 315.512V284.746L596.378 627.301L612.142 635.889L222.188 410.853C121.519 353.127 113.692 493.693 208.055 548.158L214.469 561.53L596.378 782L1189.84 439.554V435.531L616.599 766.454L226.645 541.2C130.76 485.865 159.025 377.152 230.885 418.789L620.839 643.934L1189.84 315.512Z" fill="#CBD3CE"/>
<path d="M585.18 759.931L207.837 541.744C177.615 524.241 153.045 481.626 153.045 446.729C153.045 411.832 177.615 397.59 207.837 415.093L585.18 633.389L597.356 640.455V626.323L207.837 400.96C170.983 379.653 140.87 397.047 140.87 439.662C140.87 482.278 170.983 534.569 207.837 555.877L597.356 781.13V766.997L585.18 759.931Z" fill="#007CEB"/>
<path d="M798.693 49.71L198.053 396.722L596.487 626.868L1197.13 279.856L798.693 49.71Z" fill="#007CEB"/>
<path d="M1189.84 284.746L607.249 620.996V775.694L1189.84 439.445V284.746Z" fill="#B6E0EE"/>
<path d="M337.749 605.016L304.157 585.666L309.592 557.835L321.007 564.466L337.749 605.016Z" fill="#7BC1DC"/>
<path d="M321.443 564.248L310.571 557.616L313.289 543.375L313.398 543.484L321.443 564.248Z" fill="#008CC2"/>
<path d="M345.034 622.302L302.418 597.189L304.701 585.122L337.967 604.799L345.034 622.302Z" fill="#559DB6"/>
<path d="M353.187 640.455L335.032 630.019L299.7 609.581L302.201 596.861L345.577 621.865L353.187 640.455Z" fill="#096FAA"/>
<path d="M257.084 510.652V631.541L313.289 663.938V543.158L257.084 510.652Z" fill="#EAEAEA"/>
<path d="M215.121 687.963H159.025L257.193 631.433L313.289 663.829L215.121 720.36V687.963Z" fill="#EDEDED"/>
<path d="M607.249 682.201L1189.84 345.19V329.318L607.249 666.329V682.201Z" fill="#71ACD1"/>
<path d="M1189.84 392.264V376.392L607.249 713.511V729.383L1189.84 392.264Z" fill="#71ACD1"/>
<path d="M1164.84 439.88L595.508 767.976V782L1196.15 435.858V421.834L1164.84 439.88Z" fill="#007CEB"/>
<path d="M597.356 625.453V639.585L1166.69 311.489L1198 293.443V279.419L597.356 625.453Z" fill="#007CEB"/>
<path d="M293.286 531.634L275.022 521.089V641.978L293.286 652.523V531.634Z" fill="#EE2118"/>
<path d="M293.285 652.522V652.196L275.348 641.868L195.226 687.963H215.121V697.638L293.285 652.522Z" fill="#EE2118"/>
</g>
<path d="M622.983 195.7L615.695 211.291L603.025 203.977L608.693 193.335L605.549 191.52L593.498 198.477L582.257 191.987L615.6 172.739L626.841 179.228L614.409 186.405L617.839 188.385L637.368 185.305L649.085 192.07L622.983 195.7ZM655.236 203.485C659.808 206.125 662.269 208.737 662.619 211.322C663 213.888 661.063 216.4 656.807 218.856L642.804 226.941L632.801 221.166L636.23 219.186C632.388 219.975 628.625 219.305 624.941 217.179C622.877 215.987 621.464 214.768 620.702 213.522C620.003 212.275 619.876 211.084 620.321 209.947C620.829 208.81 621.845 207.802 623.37 206.922C625.942 205.437 628.879 204.878 632.182 205.245C635.484 205.611 639.136 206.95 643.137 209.259L647.472 211.762C649.155 210.387 648.535 208.856 645.614 207.17C644.439 206.491 643.058 205.914 641.47 205.437C639.914 204.942 638.39 204.631 636.897 204.502L640.565 198.425C642.978 198.755 645.487 199.378 648.091 200.295C650.758 201.212 653.14 202.275 655.236 203.485ZM634.658 215.309C635.421 215.749 636.31 216.024 637.326 216.134C638.342 216.244 639.406 216.143 640.517 215.832L642.327 214.787L639.66 213.247C637.469 211.982 635.643 211.771 634.182 212.614C633.579 212.963 633.293 213.384 633.325 213.879C633.42 214.374 633.865 214.851 634.658 215.309ZM673.245 214.432L683.962 220.619L674.817 225.898L682.152 230.133L691.298 224.854L702.015 231.041L675.96 246.082L665.243 239.895L673.721 235L666.386 230.766L657.908 235.66L647.19 229.473L673.245 214.432ZM694.202 257.163C691.248 255.458 689.168 253.597 687.962 251.581C686.787 249.583 686.564 247.603 687.295 245.641C688.057 243.698 689.74 241.975 692.344 240.471C694.948 238.968 697.917 238.006 701.251 237.584C704.649 237.162 708.078 237.291 711.54 237.969C715.033 238.666 718.256 239.866 721.209 241.571C724.385 243.405 726.417 245.366 727.306 247.456C728.195 249.546 727.862 251.535 726.306 253.423L713.874 250.976C715.144 249.069 714.779 247.538 712.778 246.384C711.508 245.65 710 245.293 708.253 245.311C706.538 245.348 704.871 245.834 703.252 246.769C701.6 247.722 700.743 248.693 700.68 249.683C700.648 250.692 701.267 251.562 702.537 252.296C704.538 253.451 707.189 253.661 710.492 252.928L714.731 260.105C711.46 261.003 708.015 261.196 704.395 260.683C700.775 260.169 697.377 258.996 694.202 257.163ZM753.03 270.171L745.075 265.579L727.404 275.78L716.686 269.593L734.358 259.391L726.403 254.799L734.787 249.96L761.413 265.331L753.03 270.171ZM772.75 280.95C776.211 282.949 778.037 284.883 778.228 286.752C778.482 288.622 777.196 290.373 774.37 292.005C771.416 293.709 768.082 294.461 764.367 294.259C760.683 294.039 756.968 292.848 753.221 290.685L738.455 282.16L764.51 267.119L775.227 273.306L767.368 277.843L772.75 280.95ZM792.565 283.315L803.282 289.502L777.228 304.544L766.51 298.357L792.565 283.315ZM759.365 285.872C760.921 286.771 762.493 286.762 764.081 285.845C765.605 284.965 765.589 284.076 764.033 283.178L761.08 281.473L756.412 284.168L759.365 285.872ZM824.618 311.499L816.663 306.906L798.992 317.108L788.274 310.921L805.946 300.719L797.992 296.127L806.375 291.287L833.001 306.659L824.618 311.499ZM865.907 325.655L828.611 334.812C823.847 335.985 819.767 336.38 816.369 335.995C812.971 335.61 809.796 334.565 806.843 332.86C805.382 332.017 804.128 331.036 803.08 329.918C802.032 328.836 801.428 327.846 801.27 326.948L812.225 324.748C812.352 325.298 812.622 325.839 813.035 326.37C813.479 326.92 814.019 327.379 814.654 327.745C815.829 328.423 817.068 328.735 818.37 328.68L833.803 307.121L844.853 313.501L836.279 324.665L855.713 319.771L865.907 325.655ZM881.862 355.215L868.287 363.052L858.332 357.305L863.476 354.335L842.232 342.071L868.287 327.029L879.004 333.216L861.38 343.391L867.668 347.021L885.292 336.846L896.009 343.033L878.385 353.208L881.862 355.215ZM910.856 360.679C914.318 362.677 916.143 364.611 916.334 366.481C916.588 368.351 915.302 370.102 912.476 371.733C909.523 373.438 906.188 374.19 902.473 373.988C898.789 373.768 895.074 372.577 891.327 370.413L876.561 361.889L902.616 346.847L913.333 353.034L905.474 357.572L910.856 360.679ZM930.671 363.044L941.389 369.231L915.334 384.272L904.616 378.085L930.671 363.044ZM897.471 365.601C899.027 366.499 900.599 366.49 902.187 365.574C903.711 364.694 903.695 363.805 902.139 362.906L899.186 361.201L894.518 363.896L897.471 365.601ZM972.251 387.048L946.196 402.089L936.669 396.589L943.29 392.767L940.67 391.255L929.81 392.63L918.426 386.058L932.192 384.6C931.334 383.189 931.128 381.841 931.573 380.558C932.049 379.293 933.176 378.147 934.955 377.121C938.098 375.306 941.766 374.582 945.958 374.948C950.149 375.315 954.341 376.708 958.533 379.128L972.251 387.048ZM950.435 384.078C948.593 383.015 946.974 382.886 945.577 383.693C944.783 384.151 944.417 384.619 944.481 385.095C944.608 385.572 945.132 386.076 946.053 386.608L950.006 388.89L954.389 386.36L950.435 384.078Z" fill="white"/>
<defs>
<filter id="filter0_d" x="0" y="0" width="1338" height="1016" filterUnits="userSpaceOnUse" color-interpolation-filters="sRGB">
<feFlood flood-opacity="0" result="BackgroundImageFix"/>
<feColorMatrix in="SourceAlpha" type="matrix" values="0 0 0 0 0 0 0 0 0 0 0 0 0 0 0 0 0 0 127 0"/>
<feOffset dy="94"/>
<feGaussianBlur stdDeviation="70"/>
<feColorMatrix type="matrix" values="0 0 0 0 0 0 0 0 0 0.486275 0 0 0 0 0.921569 0 0 0 0.29 0"/>
<feBlend mode="normal" in2="BackgroundImageFix" result="effect1_dropShadow"/>
<feBlend mode="normal" in="SourceGraphic" in2="effect1_dropShadow" result="shape"/>
</filter>
</defs>
</svg>
