<svg width="595" height="595" viewBox="0 0 595 595" fill="none" xmlns="http://www.w3.org/2000/svg">
<g filter="url(#filter0_d)">
<path fill-rule="evenodd" clip-rule="evenodd" d="M281.539 249.459H313.463V217.539H281.539V249.459Z" fill="#E7E8E9"/>
<path fill-rule="evenodd" clip-rule="evenodd" d="M249.615 281.375H281.54V249.459H249.615V281.375Z" fill="#ED1C24"/>
<path fill-rule="evenodd" clip-rule="evenodd" d="M281.539 281.375H313.463V249.459H281.539V281.375Z" fill="#ED1C24"/>
<path fill-rule="evenodd" clip-rule="evenodd" d="M281.539 185.614H313.463V153.693H281.539V185.614Z" fill="#ED1C24"/>
<path fill-rule="evenodd" clip-rule="evenodd" d="M313.465 281.375H345.385V249.459H313.465V281.375Z" fill="#ED1C24"/>
<path fill-rule="evenodd" clip-rule="evenodd" d="M313.465 217.536H345.385V185.615H313.465V217.536Z" fill="#ED1C24"/>
<path fill-rule="evenodd" clip-rule="evenodd" d="M281.539 313.306H313.463V281.377H281.539V313.306Z" fill="#ED1C24"/>
<path fill-rule="evenodd" clip-rule="evenodd" d="M345.385 249.459H377.305V217.539H345.385V249.459Z" fill="#ED1C24"/>
<path fill-rule="evenodd" clip-rule="evenodd" d="M217.694 249.459H249.615V217.539H217.694V249.459Z" fill="#ED1C24"/>
<path fill-rule="evenodd" clip-rule="evenodd" d="M249.615 249.459H281.54V217.539H249.615V249.459Z" fill="#ED1C24"/>
<path fill-rule="evenodd" clip-rule="evenodd" d="M249.615 217.536H281.54V185.615H249.615V217.536Z" fill="#ED1C24"/>
<path fill-rule="evenodd" clip-rule="evenodd" d="M281.539 217.536H313.463V185.615H281.539V217.536Z" fill="#ED1C24"/>
<path fill-rule="evenodd" clip-rule="evenodd" d="M313.465 249.459H345.385V217.539H313.465V249.459Z" fill="#ED1C24"/>
<path fill-rule="evenodd" clip-rule="evenodd" d="M217.694 281.375H249.615V249.459H217.694V281.375Z" fill="#5D2B29"/>
<path fill-rule="evenodd" clip-rule="evenodd" d="M249.615 313.306H281.54V281.377H249.615V313.306Z" fill="#5D2B29"/>
<path fill-rule="evenodd" clip-rule="evenodd" d="M281.539 345.231H313.463V313.311H281.539V345.231Z" fill="#5D2B29"/>
<path fill-rule="evenodd" clip-rule="evenodd" d="M313.465 313.306H345.385V281.377H313.465V313.306Z" fill="#5D2B29"/>
<path fill-rule="evenodd" clip-rule="evenodd" d="M345.385 281.375H377.305V249.459H345.385V281.375Z" fill="#5D2B29"/>
<path fill-rule="evenodd" clip-rule="evenodd" d="M185.774 249.459H217.695V217.539H185.774V249.459Z" fill="#5D2B29"/>
<path fill-rule="evenodd" clip-rule="evenodd" d="M217.694 217.536H249.615V185.615H217.694V217.536Z" fill="#5D2B29"/>
<path fill-rule="evenodd" clip-rule="evenodd" d="M249.615 185.614H281.54V153.693H249.615V185.614Z" fill="#5D2B29"/>
<path fill-rule="evenodd" clip-rule="evenodd" d="M281.539 153.691H313.463V121.762H281.539V153.691Z" fill="#5D2B29"/>
<path fill-rule="evenodd" clip-rule="evenodd" d="M313.465 185.614H345.385V153.693H313.465V185.614Z" fill="#5D2B29"/>
<path fill-rule="evenodd" clip-rule="evenodd" d="M345.385 217.536H377.305V185.615H345.385V217.536Z" fill="#5D2B29"/>
<path fill-rule="evenodd" clip-rule="evenodd" d="M377.305 249.459H409.23V217.539H377.305V249.459Z" fill="#5D2B29"/>
<path fill-rule="evenodd" clip-rule="evenodd" d="M185.774 281.375H217.695V249.459H185.774V281.375Z" fill="white"/>
<path fill-rule="evenodd" clip-rule="evenodd" d="M249.615 153.691H281.54V121.762H249.615V153.691Z" fill="white"/>
<path fill-rule="evenodd" clip-rule="evenodd" d="M313.465 345.231H345.385V313.311H313.465V345.231Z" fill="white"/>
<path fill-rule="evenodd" clip-rule="evenodd" d="M281.13 249.786H313.05V217.865H281.13V249.786Z" fill="white"/>
<path fill-rule="evenodd" clip-rule="evenodd" d="M281.864 376.961H313.785V345.041H281.864V376.961Z" fill="white"/>
<path fill-rule="evenodd" clip-rule="evenodd" d="M217.694 313.306H249.615V281.377H217.694V313.306Z" fill="white"/>
<path fill-rule="evenodd" clip-rule="evenodd" d="M249.615 345.231H281.54V313.311H249.615V345.231Z" fill="white"/>
<path fill-rule="evenodd" clip-rule="evenodd" d="M345.385 313.306H377.305V281.377H345.385V313.306Z" fill="white"/>
<path fill-rule="evenodd" clip-rule="evenodd" d="M153.854 249.459H185.774V217.539H153.854V249.459Z" fill="white"/>
<path fill-rule="evenodd" clip-rule="evenodd" d="M185.774 217.536H217.695V185.615H185.774V217.536Z" fill="white"/>
<path fill-rule="evenodd" clip-rule="evenodd" d="M217.694 185.614H249.615V153.693H217.694V185.614Z" fill="white"/>
<path fill-rule="evenodd" clip-rule="evenodd" d="M281.539 121.76H313.463V89.8438H281.539V121.76Z" fill="white"/>
<path fill-rule="evenodd" clip-rule="evenodd" d="M313.465 153.691H345.385V121.762H313.465V153.691Z" fill="white"/>
<path fill-rule="evenodd" clip-rule="evenodd" d="M345.385 185.614H377.305V153.693H345.385V185.614Z" fill="white"/>
<path fill-rule="evenodd" clip-rule="evenodd" d="M377.305 281.375H409.23V249.459H377.305V281.375Z" fill="white"/>
<path fill-rule="evenodd" clip-rule="evenodd" d="M377.305 217.536H409.23V185.615H377.305V217.536Z" fill="white"/>
<path fill-rule="evenodd" clip-rule="evenodd" d="M409.23 249.459H441.151V217.539H409.23V249.459Z" fill="white"/>
<path fill-rule="evenodd" clip-rule="evenodd" d="M90 249.459H121.925V217.539H90V249.459Z" fill="#ED1C24"/>
<path fill-rule="evenodd" clip-rule="evenodd" d="M121.924 281.375H153.849V249.459H121.924V281.375Z" fill="#ED1C24"/>
<path fill-rule="evenodd" clip-rule="evenodd" d="M121.924 249.459H153.849V217.539H121.924V249.459Z" fill="#ED1C24"/>
<path fill-rule="evenodd" clip-rule="evenodd" d="M121.924 217.536H153.849V185.615H121.924V217.536Z" fill="#ED1C24"/>
<path fill-rule="evenodd" clip-rule="evenodd" d="M153.854 281.375H185.774V249.459H153.854V281.375Z" fill="#ED1C24"/>
<path fill-rule="evenodd" clip-rule="evenodd" d="M153.854 217.536H185.774V185.615H153.854V217.536Z" fill="#ED1C24"/>
<path fill-rule="evenodd" clip-rule="evenodd" d="M217.694 121.76H249.615V89.8438H217.694V121.76Z" fill="#ED1C24"/>
<path fill-rule="evenodd" clip-rule="evenodd" d="M249.615 409.066H281.54V377.15H249.615V409.066Z" fill="#ED1C24"/>
<path fill-rule="evenodd" clip-rule="evenodd" d="M153.854 313.306H185.774V281.377H153.854V313.306Z" fill="#ED1C24"/>
<path fill-rule="evenodd" clip-rule="evenodd" d="M185.774 345.231H217.695V313.311H185.774V345.231Z" fill="#ED1C24"/>
<path fill-rule="evenodd" clip-rule="evenodd" d="M185.774 313.306H217.695V281.377H185.774V313.306Z" fill="#ED1C24"/>
<path fill-rule="evenodd" clip-rule="evenodd" d="M217.694 377.149H249.615V345.229H217.694V377.149Z" fill="#ED1C24"/>
<path fill-rule="evenodd" clip-rule="evenodd" d="M217.694 345.231H249.615V313.311H217.694V345.231Z" fill="#ED1C24"/>
<path fill-rule="evenodd" clip-rule="evenodd" d="M249.615 377.149H281.54V345.229H249.615V377.149Z" fill="#ED1C24"/>
<path fill-rule="evenodd" clip-rule="evenodd" d="M281.539 440.998H313.463V409.068H281.539V440.998Z" fill="#ED1C24"/>
<path fill-rule="evenodd" clip-rule="evenodd" d="M281.539 409.066H313.463V377.15H281.539V409.066Z" fill="#ED1C24"/>
<path fill-rule="evenodd" clip-rule="evenodd" d="M313.465 409.066H345.385V377.15H313.465V409.066Z" fill="#ED1C24"/>
<path fill-rule="evenodd" clip-rule="evenodd" d="M313.465 377.149H345.385V345.229H313.465V377.149Z" fill="#ED1C24"/>
<path fill-rule="evenodd" clip-rule="evenodd" d="M345.385 377.149H377.305V345.229H345.385V377.149Z" fill="#ED1C24"/>
<path fill-rule="evenodd" clip-rule="evenodd" d="M345.385 345.231H377.305V313.311H345.385V345.231Z" fill="#ED1C24"/>
<path fill-rule="evenodd" clip-rule="evenodd" d="M153.854 185.614H185.774V153.693H153.854V185.614Z" fill="#ED1C24"/>
<path fill-rule="evenodd" clip-rule="evenodd" d="M185.774 185.614H217.695V153.693H185.774V185.614Z" fill="#ED1C24"/>
<path fill-rule="evenodd" clip-rule="evenodd" d="M185.774 153.691H217.695V121.762H185.774V153.691Z" fill="#ED1C24"/>
<path fill-rule="evenodd" clip-rule="evenodd" d="M217.694 153.691H249.615V121.762H217.694V153.691Z" fill="#ED1C24"/>
<path fill-rule="evenodd" clip-rule="evenodd" d="M249.615 121.76H281.54V89.8438H249.615V121.76Z" fill="#ED1C24"/>
<path fill-rule="evenodd" clip-rule="evenodd" d="M249.615 89.8442H281.54V57.9238H249.615V89.8442Z" fill="#ED1C24"/>
<path fill-rule="evenodd" clip-rule="evenodd" d="M281.539 89.8442H313.463V57.9238H281.539V89.8442Z" fill="#ED1C24"/>
<path fill-rule="evenodd" clip-rule="evenodd" d="M281.539 57.9204H313.463V26H281.539V57.9204Z" fill="#ED1C24"/>
<path fill-rule="evenodd" clip-rule="evenodd" d="M313.465 121.76H345.385V89.8438H313.465V121.76Z" fill="#ED1C24"/>
<path fill-rule="evenodd" clip-rule="evenodd" d="M313.465 89.8442H345.385V57.9238H313.465V89.8442Z" fill="#ED1C24"/>
<path fill-rule="evenodd" clip-rule="evenodd" d="M345.385 153.691H377.305V121.762H345.385V153.691Z" fill="#ED1C24"/>
<path fill-rule="evenodd" clip-rule="evenodd" d="M345.385 121.76H377.305V89.8438H345.385V121.76Z" fill="#ED1C24"/>
<path fill-rule="evenodd" clip-rule="evenodd" d="M377.305 345.231H409.23V313.311H377.305V345.231Z" fill="#ED1C24"/>
<path fill-rule="evenodd" clip-rule="evenodd" d="M377.305 313.306H409.23V281.377H377.305V313.306Z" fill="#ED1C24"/>
<path fill-rule="evenodd" clip-rule="evenodd" d="M377.305 185.614H409.23V153.693H377.305V185.614Z" fill="#ED1C24"/>
<path fill-rule="evenodd" clip-rule="evenodd" d="M377.305 153.691H409.23V121.762H377.305V153.691Z" fill="#ED1C24"/>
<path fill-rule="evenodd" clip-rule="evenodd" d="M409.23 313.306H441.151V281.377H409.23V313.306Z" fill="#ED1C24"/>
<path fill-rule="evenodd" clip-rule="evenodd" d="M409.23 281.375H441.151V249.459H409.23V281.375Z" fill="#ED1C24"/>
<path fill-rule="evenodd" clip-rule="evenodd" d="M409.23 217.536H441.151V185.615H409.23V217.536Z" fill="#ED1C24"/>
<path fill-rule="evenodd" clip-rule="evenodd" d="M409.23 185.614H441.151V153.693H409.23V185.614Z" fill="#ED1C24"/>
<path fill-rule="evenodd" clip-rule="evenodd" d="M441.155 281.375H473.08V249.459H441.155V281.375Z" fill="#ED1C24"/>
<path fill-rule="evenodd" clip-rule="evenodd" d="M441.155 249.459H473.08V217.539H441.155V249.459Z" fill="#ED1C24"/>
<path fill-rule="evenodd" clip-rule="evenodd" d="M441.155 217.536H473.08V185.615H441.155V217.536Z" fill="#ED1C24"/>
<path fill-rule="evenodd" clip-rule="evenodd" d="M473.079 249.459H505V217.539H473.079V249.459Z" fill="#ED1C24"/>
</g>
<defs>
<filter id="filter0_d" x="0" y="0" width="595" height="594.998" filterUnits="userSpaceOnUse" color-interpolation-filters="sRGB">
<feFlood flood-opacity="0" result="BackgroundImageFix"/>
<feColorMatrix in="SourceAlpha" type="matrix" values="0 0 0 0 0 0 0 0 0 0 0 0 0 0 0 0 0 0 127 0"/>
<feOffset dy="64"/>
<feGaussianBlur stdDeviation="45"/>
<feColorMatrix type="matrix" values="0 0 0 0 0.929412 0 0 0 0 0.109804 0 0 0 0 0.141176 0 0 0 0.37 0"/>
<feBlend mode="normal" in2="BackgroundImageFix" result="effect1_dropShadow"/>
<feBlend mode="normal" in="SourceGraphic" in2="effect1_dropShadow" result="shape"/>
</filter>
</defs>
</svg>
