<svg width="22" height="15" viewBox="0 0 22 15" fill="none" xmlns="http://www.w3.org/2000/svg">
<path d="M20.7227 2.97656C20.8711 3.64453 21.0195 4.68359 21.0938 6.01953L21.1309 7.875L21.0938 9.73047C21.0195 11.1406 20.8711 12.1426 20.7227 12.8105C20.5742 13.2559 20.3516 13.627 20.0547 13.9238C19.7207 14.2578 19.3496 14.4805 18.9043 14.5918C18.2363 14.7773 16.752 14.8887 14.377 14.9629L11 15L7.62305 14.9629C5.24805 14.8887 3.72656 14.7773 3.0957 14.5918C2.65039 14.4805 2.24219 14.2578 1.94531 13.9238C1.61133 13.627 1.38867 13.2559 1.27734 12.8105C1.0918 12.1426 0.980469 11.1406 0.90625 9.73047L0.869141 7.875C0.869141 7.35547 0.869141 6.72461 0.90625 6.01953C0.980469 4.68359 1.0918 3.64453 1.27734 2.97656C1.38867 2.53125 1.61133 2.16016 1.94531 1.82617C2.24219 1.5293 2.65039 1.30664 3.0957 1.1582C3.72656 1.00977 5.24805 0.861328 7.62305 0.787109L11 0.75L14.377 0.787109C16.752 0.861328 18.2363 1.00977 18.9043 1.1582C19.3496 1.30664 19.7207 1.5293 20.0547 1.82617C20.3516 2.16016 20.5742 2.53125 20.7227 2.97656ZM8.92188 10.918L14.2285 7.875L8.92188 4.86914V10.918Z" fill="white"/>
</svg>
