<svg width="18" height="18" viewBox="0 0 18 18" fill="none" xmlns="http://www.w3.org/2000/svg">
<path d="M9 4.60742C9.74219 4.60742 10.4473 4.83008 11.1152 5.20117C11.7832 5.57227 12.3027 6.0918 12.6738 6.75977C13.0449 7.42773 13.2676 8.13281 13.2676 8.875C13.2676 9.6543 13.0449 10.3594 12.6738 11.0273C12.3027 11.6953 11.7832 12.2148 11.1152 12.5859C10.4473 12.957 9.74219 13.1426 9 13.1426C8.2207 13.1426 7.51562 12.957 6.84766 12.5859C6.17969 12.2148 5.66016 11.6953 5.28906 11.0273C4.91797 10.3594 4.73242 9.6543 4.73242 8.875C4.73242 8.13281 4.91797 7.42773 5.28906 6.75977C5.66016 6.0918 6.17969 5.57227 6.84766 5.20117C7.51562 4.83008 8.2207 4.60742 9 4.60742ZM14.4551 4.42188C14.4551 4.16211 14.3438 3.93945 14.1582 3.7168C13.9355 3.53125 13.7129 3.41992 13.4531 3.41992C13.1562 3.41992 12.9336 3.53125 12.748 3.7168C12.5254 3.93945 12.4512 4.16211 12.4512 4.42188C12.4512 4.71875 12.5254 4.94141 12.748 5.12695C12.9336 5.34961 13.1562 5.42383 13.4531 5.42383C13.7129 5.42383 13.9355 5.34961 14.1211 5.12695C14.3066 4.94141 14.418 4.71875 14.4551 4.42188ZM17.2754 5.42383C17.2754 6.12891 17.3125 7.2793 17.3125 8.875C17.3125 10.5078 17.2754 11.6582 17.2383 12.3633C17.2012 13.0684 17.0898 13.6621 16.9414 14.1816C16.7188 14.8125 16.3477 15.3691 15.9023 15.8145C15.457 16.2598 14.9004 16.5938 14.3066 16.8164C13.7871 17.002 13.1562 17.1133 12.4512 17.1504C11.7461 17.1875 10.5957 17.1875 9 17.1875C7.36719 17.1875 6.2168 17.1875 5.51172 17.1504C4.80664 17.1133 4.21289 17.002 3.69336 16.7793C3.0625 16.5938 2.50586 16.2598 2.06055 15.8145C1.61523 15.3691 1.28125 14.8125 1.05859 14.1816C0.873047 13.6621 0.761719 13.0684 0.724609 12.3633C0.6875 11.6582 0.6875 10.5078 0.6875 8.875C0.6875 7.2793 0.6875 6.12891 0.724609 5.42383C0.761719 4.71875 0.873047 4.08789 1.05859 3.56836C1.28125 2.97461 1.61523 2.41797 2.06055 1.97266C2.50586 1.52734 3.0625 1.15625 3.69336 0.933594C4.21289 0.785156 4.80664 0.673828 5.51172 0.636719C6.2168 0.599609 7.36719 0.5625 9 0.5625C10.5957 0.5625 11.7461 0.599609 12.4512 0.636719C13.1562 0.673828 13.7871 0.785156 14.3066 0.933594C14.9004 1.15625 15.457 1.52734 15.9023 1.97266C16.3477 2.41797 16.7188 2.97461 16.9414 3.56836C17.0898 4.08789 17.2012 4.71875 17.2754 5.42383ZM15.4941 13.7734C15.6426 13.3652 15.7168 12.6973 15.791 11.7695C15.791 11.25 15.8281 10.4707 15.8281 9.46875V8.28125C15.8281 7.2793 15.791 6.5 15.791 5.98047C15.7168 5.05273 15.6426 4.38477 15.4941 3.97656C15.1973 3.23438 14.6406 2.67773 13.8984 2.38086C13.4902 2.23242 12.8223 2.1582 11.8945 2.08398C11.3379 2.08398 10.5586 2.04688 9.59375 2.04688H8.40625C7.4043 2.04688 6.625 2.08398 6.10547 2.08398C5.17773 2.1582 4.50977 2.23242 4.10156 2.38086C3.32227 2.67773 2.80273 3.23438 2.50586 3.97656C2.35742 4.38477 2.24609 5.05273 2.20898 5.98047C2.17188 6.53711 2.17188 7.31641 2.17188 8.28125V9.46875C2.17188 10.4707 2.17188 11.25 2.20898 11.7695C2.24609 12.6973 2.35742 13.3652 2.50586 13.7734C2.80273 14.5527 3.35938 15.0723 4.10156 15.3691C4.50977 15.5176 5.17773 15.6289 6.10547 15.666C6.625 15.7031 7.4043 15.7031 8.40625 15.7031H9.59375C10.5957 15.7031 11.375 15.7031 11.8945 15.666C12.8223 15.6289 13.4902 15.5176 13.8984 15.3691C14.6406 15.0723 15.1973 14.5156 15.4941 13.7734Z" fill="white"/>
</svg>
