<svg width="84" height="36" viewBox="0 0 84 36" fill="none" xmlns="http://www.w3.org/2000/svg">
<path d="M0.257 0.545998H7.287V28H0.257V0.545998ZM21.9196 28.333C19.7736 28.333 17.8373 27.889 16.1106 27.001C14.384 26.113 13.0273 24.8797 12.0406 23.301C11.0786 21.7223 10.5976 19.934 10.5976 17.936C10.5976 15.9627 11.0786 14.1867 12.0406 12.608C13.0273 11.0293 14.3716 9.80833 16.0736 8.945C17.8003 8.057 19.749 7.613 21.9196 7.613C24.0903 7.613 26.039 8.057 27.7656 8.945C29.4923 9.80833 30.8366 11.0293 31.7986 12.608C32.7606 14.162 33.2416 15.938 33.2416 17.936C33.2416 19.934 32.7606 21.7223 31.7986 23.301C30.8366 24.8797 29.4923 26.113 27.7656 27.001C26.039 27.889 24.0903 28.333 21.9196 28.333ZM21.9196 22.746C23.153 22.746 24.1643 22.3267 24.9536 21.488C25.743 20.6247 26.1376 19.4407 26.1376 17.936C26.1376 16.456 25.743 15.2967 24.9536 14.458C24.1643 13.6193 23.153 13.2 21.9196 13.2C20.6863 13.2 19.675 13.6193 18.8856 14.458C18.0963 15.2967 17.7016 16.456 17.7016 17.936C17.7016 19.4407 18.0963 20.6247 18.8856 21.488C19.675 22.3267 20.6863 22.746 21.9196 22.746ZM58.0692 7.946V24.337C58.0692 28.0617 57.0579 30.849 55.0352 32.699C53.0125 34.5737 50.1019 35.511 46.3032 35.511C44.3299 35.511 42.4799 35.289 40.7532 34.845C39.0265 34.401 37.5589 33.7473 36.3502 32.884L38.9032 27.963C39.7172 28.629 40.7409 29.147 41.9742 29.517C43.2322 29.9117 44.4655 30.109 45.6742 30.109C47.5242 30.109 48.8809 29.702 49.7442 28.888C50.6075 28.074 51.0392 26.8653 51.0392 25.262V24.596C49.6825 26.1747 47.6969 26.964 45.0822 26.964C43.3062 26.964 41.6659 26.5693 40.1612 25.78C38.6565 24.966 37.4602 23.8313 36.5722 22.376C35.6842 20.896 35.2402 19.194 35.2402 17.27C35.2402 15.3707 35.6842 13.6933 36.5722 12.238C37.4602 10.758 38.6565 9.62333 40.1612 8.834C41.6659 8.02 43.3062 7.613 45.0822 7.613C47.9435 7.613 50.0402 8.538 51.3722 10.388V7.946H58.0692ZM46.7472 21.377C48.0052 21.377 49.0412 20.9947 49.8552 20.23C50.6939 19.4653 51.1132 18.4787 51.1132 17.27C51.1132 16.0613 50.7062 15.087 49.8922 14.347C49.0782 13.5823 48.0299 13.2 46.7472 13.2C45.4645 13.2 44.4039 13.5823 43.5652 14.347C42.7512 15.087 42.3442 16.0613 42.3442 17.27C42.3442 18.4787 42.7635 19.4653 43.6022 20.23C44.4409 20.9947 45.4892 21.377 46.7472 21.377ZM72.6501 28.333C70.5041 28.333 68.5678 27.889 66.8411 27.001C65.1144 26.113 63.7578 24.8797 62.7711 23.301C61.8091 21.7223 61.3281 19.934 61.3281 17.936C61.3281 15.9627 61.8091 14.1867 62.7711 12.608C63.7578 11.0293 65.1021 9.80833 66.8041 8.945C68.5308 8.057 70.4794 7.613 72.6501 7.613C74.8208 7.613 76.7694 8.057 78.4961 8.945C80.2228 9.80833 81.5671 11.0293 82.5291 12.608C83.4911 14.162 83.9721 15.938 83.9721 17.936C83.9721 19.934 83.4911 21.7223 82.5291 23.301C81.5671 24.8797 80.2228 26.113 78.4961 27.001C76.7694 27.889 74.8208 28.333 72.6501 28.333ZM72.6501 22.746C73.8834 22.746 74.8948 22.3267 75.6841 21.488C76.4734 20.6247 76.8681 19.4407 76.8681 17.936C76.8681 16.456 76.4734 15.2967 75.6841 14.458C74.8948 13.6193 73.8834 13.2 72.6501 13.2C71.4168 13.2 70.4054 13.6193 69.6161 14.458C68.8268 15.2967 68.4321 16.456 68.4321 17.936C68.4321 19.4407 68.8268 20.6247 69.6161 21.488C70.4054 22.3267 71.4168 22.746 72.6501 22.746Z" fill="#2F2C39"/>
</svg>
