<svg width="20" height="16" viewBox="0 0 20 16" fill="none" xmlns="http://www.w3.org/2000/svg">
<path d="M17.5332 4.01562C18.2754 3.45898 18.9434 2.79102 19.5 1.97461C18.7578 2.30859 18.0156 2.53125 17.2734 2.60547C18.0898 2.08594 18.6836 1.38086 18.9805 0.453125C18.2012 0.898438 17.3848 1.23242 16.4941 1.38086C16.123 1.00977 15.6777 0.712891 15.1953 0.490234C14.7129 0.267578 14.1934 0.15625 13.6367 0.15625C12.9316 0.15625 12.3008 0.341797 11.707 0.675781C11.1133 1.04688 10.6309 1.5293 10.2969 2.12305C9.92578 2.7168 9.77734 3.38477 9.77734 4.05273C9.77734 4.34961 9.77734 4.64648 9.85156 4.94336C8.25586 4.86914 6.77148 4.49805 5.36133 3.75586C3.95117 3.05078 2.80078 2.08594 1.83594 0.861328C1.46484 1.49219 1.2793 2.16016 1.2793 2.82812C1.2793 3.49609 1.42773 4.12695 1.76172 4.68359C2.05859 5.27734 2.50391 5.72266 3.02344 6.09375C2.39258 6.09375 1.79883 5.9082 1.2793 5.57422V5.64844C1.2793 6.57617 1.57617 7.39258 2.16992 8.09766C2.76367 8.83984 3.50586 9.28516 4.39648 9.4707C4.02539 9.54492 3.69141 9.58203 3.35742 9.58203C3.13477 9.58203 2.875 9.58203 2.65234 9.54492C2.875 10.3242 3.32031 10.9551 3.98828 11.4746C4.65625 11.9941 5.39844 12.2168 6.28906 12.2168C4.8418 13.3301 3.20898 13.8867 1.42773 13.8867C1.05664 13.8867 0.759766 13.8867 0.5 13.8496C2.28125 15.0371 4.28516 15.5938 6.47461 15.5938C8.73828 15.5938 10.7422 15.0371 12.5234 13.8496C14.1191 12.8105 15.3809 11.4375 16.2715 9.65625C17.125 8.02344 17.5703 6.2793 17.5703 4.49805C17.5703 4.27539 17.5332 4.12695 17.5332 4.01562Z" fill="white"/>
</svg>
