<svg width="15" height="16" viewBox="0 0 15 16" fill="none" xmlns="http://www.w3.org/2000/svg">
<path fill-rule="evenodd" clip-rule="evenodd" d="M13.8495 11.3564C13.3844 10.9819 12.8876 10.6457 12.3983 10.3024C11.4224 9.61696 10.5302 9.56382 9.80185 10.6665C9.39309 11.2854 8.82098 11.3125 8.22231 11.041C6.57227 10.2927 5.29837 9.14033 4.55187 7.4632C4.22202 6.72143 4.22623 6.05621 4.99877 5.53145C5.40754 5.25394 5.81972 4.92567 5.78684 4.3191C5.74396 3.52841 3.82404 0.886187 3.06571 0.607366C2.75216 0.491893 2.43967 0.499258 2.12061 0.60684C0.342732 1.20446 -0.39325 2.66643 0.311693 4.39749C2.41521 9.56198 6.11748 13.1569 11.2133 15.352C11.504 15.4764 11.827 15.5266 11.9903 15.5714C13.1503 15.5832 14.5095 14.465 14.9022 13.3555C15.2799 12.2884 14.4813 11.8649 13.8495 11.3564Z" fill="white"/>
<path fill-rule="evenodd" clip-rule="evenodd" d="M8.13544 0.933639C11.8614 1.50654 13.5793 3.2781 14.0538 7.03034C14.0975 7.37703 13.9686 7.89863 14.4631 7.90837C14.98 7.9181 14.8553 7.40438 14.8598 7.05744C14.9034 3.52325 11.8219 0.247109 8.24328 0.126375C7.97314 0.165041 7.41471 -0.0598565 7.37973 0.545132C7.35658 0.953104 7.82716 0.886293 8.13544 0.933639Z" fill="white"/>
<path fill-rule="evenodd" clip-rule="evenodd" d="M8.86439 1.96181C8.50587 1.91893 8.03319 1.7498 7.94902 2.2472C7.86196 2.76907 8.38882 2.7162 8.72788 2.79196C11.0289 3.3062 11.8299 4.14371 12.2089 6.4261C12.2642 6.75884 12.1545 7.27676 12.7197 7.19075C13.1388 7.12709 12.9878 6.68335 13.0228 6.42373C13.0414 4.23262 11.1634 2.238 8.86439 1.96181Z" fill="white"/>
<path fill-rule="evenodd" clip-rule="evenodd" d="M9.07626 3.75331C8.83689 3.7591 8.60226 3.78488 8.51441 4.04082C8.3821 4.42275 8.66013 4.51376 8.94264 4.55926C9.88668 4.71104 10.383 5.26736 10.4777 6.20851C10.503 6.46419 10.6653 6.67094 10.912 6.642C11.254 6.60123 11.285 6.2969 11.2745 6.00755C11.2916 4.95014 10.0963 3.72806 9.07626 3.75331Z" fill="white"/>
</svg>
