<svg width="12" height="20" viewBox="0 0 12 20" fill="none" xmlns="http://www.w3.org/2000/svg">
<path d="M10.416 11.0625H7.63281V19.375H3.92188V11.0625H0.916016V7.61133H3.92188V5.01367C3.92188 4.02409 4.10742 3.18294 4.47852 2.49023C4.84961 1.79753 5.36914 1.27799 6.03711 0.931641C6.72982 0.560547 7.52148 0.375 8.41211 0.375C8.80794 0.375 9.22852 0.39974 9.67383 0.449219C10.1191 0.473958 10.4655 0.511068 10.7129 0.560547L11.084 0.597656V3.5293H9.59961C8.9069 3.5293 8.39974 3.71484 8.07812 4.08594C7.78125 4.43229 7.63281 4.86523 7.63281 5.38477V7.61133H10.9355L10.416 11.0625Z" fill="white"/>
</svg>
