<?xml version="1.0" encoding="utf-8"?>
<!-- Generator: Adobe Illustrator 21.1.0, SVG Export Plug-In . SVG Version: 6.00 Build 0)  -->
<svg version="1.1" id="Layer_1" xmlns="http://www.w3.org/2000/svg" xmlns:xlink="http://www.w3.org/1999/xlink" x="0px" y="0px"
	 viewBox="0 0 14 12.4" style="enable-background:new 0 0 14 12.4;" xml:space="preserve">
<style type="text/css">
	.st0{fill:#FFFFFF;}
</style>
<g>
	<path class="st0" d="M0.5,2.2c-0.2,0-0.3,0-0.4-0.1S0,1.9,0,1.7V0.5c0-0.1,0-0.3,0.1-0.3S0.3,0,0.5,0h13c0.1,0,0.3,0.1,0.3,0.2
		C13.9,0.3,14,0.4,14,0.5v1.2c0,0.2-0.1,0.3-0.2,0.4c-0.1,0.1-0.2,0.1-0.3,0.1H0.5z M0.5,7.2c-0.2,0-0.3,0-0.4-0.1S0,6.9,0,6.7V5.5
		c0-0.1,0-0.3,0.1-0.3S0.3,5,0.5,5h13c0.1,0,0.3,0.1,0.3,0.2c0.1,0,0.2,0.2,0.2,0.3v1.3c0,0.2-0.1,0.3-0.2,0.4
		c-0.1,0.1-0.2,0.1-0.3,0.1h-13V7.2z M0.5,12.3c-0.2,0-0.3,0-0.4-0.1C0,12,0,11.9,0,11.8v-1.3c0-0.1,0-0.3,0.1-0.3
		C0.2,10.1,0.3,10,0.5,10h13c0.1,0,0.3,0.1,0.3,0.2c0.1,0.1,0.2,0.2,0.2,0.3v1.3c0,0.2-0.1,0.3-0.2,0.4c-0.1,0.1-0.2,0.1-0.3,0.1
		H0.5z"/>
</g>
</svg>
