<svg width="1357" height="1030" viewBox="0 0 1357 1030" fill="none" xmlns="http://www.w3.org/2000/svg">
<g filter="url(#filter0_d)">
<path d="M299.534 651.509H242.447L342.349 594.201L399.435 626.949L299.534 684.146V651.509Z" fill="#7BC1DC"/>
<path d="M891.753 139.83C842.411 94.6918 810.217 64.157 819.621 69.578L891.753 111.176V96.7938L819.621 55.1957C799.596 43.6898 781.563 43.3579 769.061 52.098C758.108 59.7317 176.841 395.725 165.003 400.15C149.847 405.903 140.111 422.166 140.111 446.506C140.111 447.501 140.221 448.497 140.221 449.493H891.753V139.83Z" fill="#007CEB"/>
<path d="M604.77 637.57L208.15 408.449C170.645 386.765 140 404.466 140 447.834C140 491.203 170.645 544.306 208.15 565.991L604.77 795.002L1208.39 446.507V288.965L604.77 637.57Z" fill="#FFFFFE"/>
<path d="M141.991 467.856L615.502 741.342V725.3L140 450.598C140.221 456.24 140.885 461.993 141.991 467.856Z" fill="#7BC1DC"/>
<path d="M144.647 421.724L615.613 693.44V677.287L152.171 409.887C149.073 413.206 146.528 417.189 144.647 421.724Z" fill="#7BC1DC"/>
<path d="M1208.39 320.274V288.965L604.438 637.57L620.48 646.31L223.639 417.299C121.192 358.553 113.227 501.602 209.256 557.029L215.784 570.637L604.438 795.002L1208.39 446.507V442.413L625.016 779.181L228.175 549.949C130.596 493.636 159.361 383.003 232.489 425.376L629.331 654.497L1208.39 320.274Z" fill="#CBD3CE"/>
<path d="M593.043 772.543L209.035 550.502C178.279 532.69 153.276 489.321 153.276 453.808C153.276 418.295 178.279 403.802 209.035 421.614L593.043 643.766L605.434 650.957V636.574L209.035 407.232C171.53 385.547 140.885 403.249 140.885 446.617C140.885 489.985 171.53 543.2 209.035 564.884L605.434 794.116V779.734L593.043 772.543Z" fill="#007CEB"/>
<path d="M810.327 49.7734L199.078 402.915L604.549 637.126L1215.8 283.984L810.327 49.7734Z" fill="#007CEB"/>
<path d="M1208.39 288.965L615.502 631.154V788.585L1208.39 446.396V288.965Z" fill="#B6E0EE"/>
<path d="M341.242 614.891L307.056 595.199L312.588 566.876L324.204 573.625L341.242 614.891Z" fill="#7BC1DC"/>
<path d="M324.648 573.402L313.584 566.653L316.35 552.16L316.461 552.271L324.648 573.402Z" fill="#008CC2"/>
<path d="M348.655 632.482L305.287 606.925L307.61 594.645L341.464 614.67L348.655 632.482Z" fill="#559DB6"/>
<path d="M356.953 650.954L338.477 640.333L302.521 619.534L305.066 606.59L349.209 632.036L356.953 650.954Z" fill="#096FAA"/>
<path d="M259.153 518.859V641.884L316.35 674.852V551.939L259.153 518.859Z" fill="#EAEAEA"/>
<path d="M216.447 699.303H159.36L259.262 641.773L316.349 674.742L216.447 732.271V699.303Z" fill="#EDEDED"/>
<path d="M615.502 693.436L1208.39 350.473V334.32L615.502 677.283V693.436Z" fill="#71ACD1"/>
<path d="M1208.39 398.379V382.227L615.502 725.3V741.453L1208.39 398.379Z" fill="#71ACD1"/>
<path d="M1182.94 446.838L603.554 780.73V795.001L1214.8 442.745V428.473L1182.94 446.838Z" fill="#007CEB"/>
<path d="M605.435 635.689V650.071L1184.82 316.18L1216.68 297.815V283.543L605.435 635.689Z" fill="#007CEB"/>
<path d="M295.994 540.212L277.407 529.48V652.505L295.994 663.236V540.212Z" fill="#EE2118"/>
<path d="M295.993 663.237V662.905L277.738 652.395L196.202 699.303H216.448V709.149L295.993 663.237Z" fill="#EE2118"/>
<path d="M590.04 206.496L584.078 219.253L573.711 213.269L578.349 204.562L575.777 203.077L565.917 208.769L556.719 203.459L584 187.71L593.197 193.02L583.026 198.892L585.832 200.512L601.81 197.992L611.397 203.527L590.04 206.496ZM616.429 212.866C620.17 215.026 622.184 217.163 622.47 219.278C622.782 221.378 621.197 223.433 617.715 225.443L606.257 232.057L598.073 227.333L600.879 225.713C597.736 226.358 594.657 225.81 591.643 224.07C589.954 223.096 588.798 222.098 588.174 221.078C587.603 220.058 587.499 219.083 587.863 218.153C588.278 217.223 589.11 216.398 590.357 215.679C592.461 214.464 594.865 214.006 597.567 214.306C600.269 214.606 603.257 215.701 606.53 217.591L610.077 219.638C611.454 218.513 610.947 217.261 608.557 215.881C607.595 215.326 606.465 214.854 605.166 214.464C603.893 214.059 602.646 213.804 601.425 213.699L604.426 208.726C606.4 208.996 608.453 209.506 610.583 210.256C612.766 211.006 614.714 211.876 616.429 212.866ZM599.593 222.541C600.217 222.901 600.944 223.126 601.776 223.216C602.607 223.306 603.477 223.223 604.387 222.968L605.868 222.113L603.685 220.853C601.893 219.818 600.399 219.646 599.203 220.336C598.71 220.621 598.476 220.966 598.502 221.371C598.58 221.776 598.944 222.166 599.593 222.541ZM631.164 221.823L639.933 226.885L632.45 231.205L638.452 234.669L645.935 230.35L654.703 235.412L633.386 247.719L624.617 242.656L631.554 238.652L625.552 235.187L618.615 239.192L609.846 234.129L631.164 221.823ZM648.31 256.785C645.894 255.39 644.192 253.867 643.205 252.217C642.244 250.582 642.062 248.963 642.659 247.358C643.283 245.768 644.66 244.358 646.79 243.128C648.921 241.898 651.35 241.111 654.078 240.766C656.858 240.421 659.664 240.526 662.496 241.081C665.354 241.651 667.991 242.633 670.407 244.028C673.006 245.528 674.668 247.133 675.396 248.843C676.123 250.552 675.851 252.18 674.577 253.725L664.406 251.722C665.445 250.163 665.146 248.91 663.509 247.965C662.47 247.365 661.236 247.073 659.807 247.088C658.404 247.118 657.04 247.515 655.715 248.28C654.364 249.06 653.662 249.855 653.611 250.665C653.585 251.49 654.091 252.202 655.13 252.802C656.767 253.747 658.937 253.92 661.639 253.32L665.107 259.192C662.431 259.927 659.612 260.084 656.65 259.664C653.688 259.244 650.908 258.284 648.31 256.785ZM696.443 267.427L689.934 263.67L675.476 272.017L666.707 266.955L681.166 258.608L674.657 254.851L681.516 250.891L703.302 263.468L696.443 267.427ZM712.577 276.247C715.409 277.882 716.903 279.464 717.059 280.994C717.267 282.524 716.215 283.957 713.902 285.291C711.486 286.686 708.758 287.301 705.718 287.136C702.704 286.956 699.665 285.981 696.599 284.212L684.517 277.237L705.835 264.93L714.604 269.992L708.173 273.705L712.577 276.247ZM728.79 278.182L737.558 283.244L716.241 295.551L707.472 290.489L728.79 278.182ZM701.626 280.274C702.899 281.009 704.185 281.002 705.484 280.252C706.731 279.532 706.718 278.804 705.445 278.069L703.029 276.675L699.21 278.879L701.626 280.274ZM755.015 301.241L748.506 297.484L734.048 305.831L725.279 300.769L739.738 292.422L733.229 288.664L740.088 284.705L761.874 297.281L755.015 301.241ZM788.796 312.824L758.281 320.316C754.384 321.276 751.046 321.598 748.266 321.283C745.486 320.968 742.887 320.113 740.471 318.718C739.276 318.029 738.25 317.226 737.392 316.311C736.535 315.426 736.041 314.616 735.911 313.881L744.875 312.081C744.979 312.531 745.2 312.974 745.538 313.409C745.901 313.859 746.343 314.234 746.863 314.534C747.824 315.089 748.837 315.344 749.902 315.299L762.529 297.66L771.571 302.879L764.556 312.014L780.456 308.009L788.796 312.824ZM801.851 337.009L790.744 343.421L782.599 338.719L786.808 336.289L769.426 326.255L790.744 313.948L799.513 319.01L785.093 327.335L790.237 330.305L804.657 321.98L813.426 327.042L799.006 335.367L801.851 337.009ZM825.573 341.48C828.405 343.114 829.899 344.697 830.055 346.227C830.263 347.757 829.211 349.189 826.898 350.524C824.482 351.919 821.754 352.534 818.714 352.369C815.7 352.189 812.661 351.214 809.595 349.444L797.513 342.47L818.831 330.163L827.6 335.225L821.169 338.937L825.573 341.48ZM841.786 343.414L850.554 348.477L829.237 360.783L820.468 355.721L841.786 343.414ZM814.622 345.507C815.895 346.242 817.181 346.234 818.48 345.484C819.727 344.764 819.714 344.037 818.441 343.302L816.025 341.907L812.206 344.112L814.622 345.507ZM875.805 363.054L854.487 375.361L846.693 370.861L852.11 367.734L849.967 366.496L841.081 367.621L831.767 362.244L843.03 361.052C842.328 359.897 842.159 358.794 842.523 357.744C842.913 356.709 843.835 355.772 845.29 354.932C847.862 353.447 850.863 352.855 854.293 353.155C857.722 353.455 861.152 354.594 864.581 356.574L875.805 363.054ZM857.956 360.624C856.449 359.754 855.124 359.649 853.981 360.309C853.331 360.684 853.032 361.067 853.084 361.457C853.188 361.847 853.617 362.259 854.37 362.694L857.605 364.561L861.191 362.491L857.956 360.624ZM862.104 380.208C860.623 379.353 859.857 378.37 859.805 377.26C859.805 376.15 860.545 375.168 862.026 374.313C863.507 373.458 865.183 373.046 867.053 373.076C868.976 373.106 870.678 373.548 872.159 374.403C873.64 375.258 874.393 376.233 874.419 377.328C874.497 378.423 873.796 379.398 872.315 380.253C870.834 381.108 869.119 381.528 867.17 381.513C865.274 381.498 863.585 381.063 862.104 380.208ZM902.72 381.337C905.864 383.152 907.461 385.049 907.513 387.029C907.565 389.009 906.11 390.853 903.149 392.563C901.148 393.718 898.836 394.423 896.211 394.678C893.639 394.933 891.002 394.761 888.3 394.161C885.598 393.561 883.091 392.593 880.779 391.258C876.985 389.069 875.05 386.646 874.972 383.991C874.92 381.352 877.245 378.674 881.948 375.959C890.807 370.845 899.901 370.155 909.228 373.89L921.738 378.907L915.697 383.744L905.136 379.492C902.668 378.487 900.589 377.932 898.901 377.827C897.238 377.737 895.575 378.052 893.912 378.772C897.186 378.982 900.122 379.837 902.72 381.337ZM887.287 387.501C888.352 388.116 889.521 388.386 890.794 388.311C892.093 388.251 893.237 387.936 894.224 387.366C895.315 386.736 895.848 386.069 895.822 385.364C895.822 384.674 895.315 384.036 894.302 383.451C893.263 382.852 892.119 382.552 890.872 382.552C889.651 382.537 888.495 382.844 887.404 383.474C886.365 384.074 885.819 384.749 885.767 385.499C885.767 386.249 886.274 386.916 887.287 387.501ZM929.515 406.345C929.385 406.42 928.658 406.795 927.332 407.47L912.523 398.92C912.029 399.565 911.926 400.225 912.211 400.9C912.523 401.56 913.225 402.205 914.316 402.835C915.251 403.375 916.147 403.757 917.005 403.982C917.888 404.222 918.992 404.395 920.317 404.5L920.279 409.832C915.914 409.952 911.666 408.82 907.535 406.435C904.963 404.95 903.17 403.375 902.157 401.71C901.169 400.03 900.987 398.395 901.611 396.805C902.234 395.216 903.599 393.813 905.703 392.598C907.833 391.368 910.25 390.573 912.952 390.213C915.706 389.853 918.46 389.928 921.214 390.438C923.994 390.963 926.527 391.886 928.813 393.206C930.97 394.451 932.503 395.83 933.412 397.345C934.347 398.875 934.503 400.42 933.88 401.98C933.282 403.555 931.827 405.01 929.515 406.345ZM922.89 396.715C921.98 396.19 920.98 395.898 919.889 395.838C918.798 395.778 917.706 395.958 916.615 396.378L923.474 400.338C924.176 399.723 924.475 399.1 924.371 398.47C924.293 397.825 923.799 397.24 922.89 396.715ZM966.314 415.305L944.997 427.612L936.189 422.527L950.647 414.18L946.633 411.863L943.749 413.392C940.891 414.922 938.345 416.062 936.111 416.812C933.877 417.562 931.733 417.9 929.681 417.825C927.68 417.75 925.744 417.172 923.874 416.092C922.705 415.417 921.535 414.517 920.366 413.392L927.849 409.478C928.213 409.748 928.485 409.935 928.667 410.04C929.732 410.655 930.811 410.843 931.902 410.603C933.019 410.348 934.513 409.725 936.384 408.735L945.971 403.561L966.314 415.305Z" fill="white"/>
</g>
<defs>
<filter id="filter0_d" x="0" y="-3.05176e-05" width="1356.68" height="1029" filterUnits="userSpaceOnUse" color-interpolation-filters="sRGB">
<feFlood flood-opacity="0" result="BackgroundImageFix"/>
<feColorMatrix in="SourceAlpha" type="matrix" values="0 0 0 0 0 0 0 0 0 0 0 0 0 0 0 0 0 0 127 0"/>
<feOffset dy="94"/>
<feGaussianBlur stdDeviation="70"/>
<feColorMatrix type="matrix" values="0 0 0 0 0 0 0 0 0 0.486275 0 0 0 0 0.921569 0 0 0 0.29 0"/>
<feBlend mode="normal" in2="BackgroundImageFix" result="effect1_dropShadow"/>
<feBlend mode="normal" in="SourceGraphic" in2="effect1_dropShadow" result="shape"/>
</filter>
</defs>
</svg>
