<svg width="633" height="633" viewBox="0 0 633 633" fill="none" xmlns="http://www.w3.org/2000/svg">
<g filter="url(#filter0_d)">
<path fill-rule="evenodd" clip-rule="evenodd" d="M299.077 269.922H333.926V235.078H299.077V269.922Z" fill="#E7E8E9"/>
<path fill-rule="evenodd" clip-rule="evenodd" d="M264.231 304.758H299.079V269.92H264.231V304.758Z" fill="#ED1C24"/>
<path fill-rule="evenodd" clip-rule="evenodd" d="M299.077 304.758H333.926V269.92H299.077V304.758Z" fill="#ED1C24"/>
<path fill-rule="evenodd" clip-rule="evenodd" d="M299.077 200.228H333.926V165.385H299.077V200.228Z" fill="#ED1C24"/>
<path fill-rule="evenodd" clip-rule="evenodd" d="M333.927 304.758H368.77V269.92H333.927V304.758Z" fill="#ED1C24"/>
<path fill-rule="evenodd" clip-rule="evenodd" d="M333.927 235.073H368.77V200.23H333.927V235.073Z" fill="#ED1C24"/>
<path fill-rule="evenodd" clip-rule="evenodd" d="M299.077 339.613H333.926V304.76H299.077V339.613Z" fill="#ED1C24"/>
<path fill-rule="evenodd" clip-rule="evenodd" d="M368.77 269.922H403.613V235.078H368.77V269.922Z" fill="#ED1C24"/>
<path fill-rule="evenodd" clip-rule="evenodd" d="M229.387 269.922H264.23V235.078H229.387V269.922Z" fill="#ED1C24"/>
<path fill-rule="evenodd" clip-rule="evenodd" d="M264.231 269.922H299.079V235.078H264.231V269.922Z" fill="#ED1C24"/>
<path fill-rule="evenodd" clip-rule="evenodd" d="M264.231 235.073H299.079V200.23H264.231V235.073Z" fill="#ED1C24"/>
<path fill-rule="evenodd" clip-rule="evenodd" d="M299.077 235.073H333.926V200.23H299.077V235.073Z" fill="#ED1C24"/>
<path fill-rule="evenodd" clip-rule="evenodd" d="M333.927 269.922H368.77V235.078H333.927V269.922Z" fill="#ED1C24"/>
<path fill-rule="evenodd" clip-rule="evenodd" d="M229.387 304.758H264.23V269.92H229.387V304.758Z" fill="#5D2B29"/>
<path fill-rule="evenodd" clip-rule="evenodd" d="M264.231 339.613H299.079V304.76H264.231V339.613Z" fill="#5D2B29"/>
<path fill-rule="evenodd" clip-rule="evenodd" d="M299.077 374.462H333.926V339.618H299.077V374.462Z" fill="#5D2B29"/>
<path fill-rule="evenodd" clip-rule="evenodd" d="M333.927 339.613H368.77V304.76H333.927V339.613Z" fill="#5D2B29"/>
<path fill-rule="evenodd" clip-rule="evenodd" d="M368.77 304.758H403.613V269.92H368.77V304.758Z" fill="#5D2B29"/>
<path fill-rule="evenodd" clip-rule="evenodd" d="M194.544 269.922H229.387V235.078H194.544V269.922Z" fill="#5D2B29"/>
<path fill-rule="evenodd" clip-rule="evenodd" d="M229.387 235.073H264.23V200.23H229.387V235.073Z" fill="#5D2B29"/>
<path fill-rule="evenodd" clip-rule="evenodd" d="M264.231 200.228H299.079V165.385H264.231V200.228Z" fill="#5D2B29"/>
<path fill-rule="evenodd" clip-rule="evenodd" d="M299.077 165.383H333.926V130.53H299.077V165.383Z" fill="#5D2B29"/>
<path fill-rule="evenodd" clip-rule="evenodd" d="M333.927 200.228H368.77V165.385H333.927V200.228Z" fill="#5D2B29"/>
<path fill-rule="evenodd" clip-rule="evenodd" d="M368.77 235.073H403.613V200.23H368.77V235.073Z" fill="#5D2B29"/>
<path fill-rule="evenodd" clip-rule="evenodd" d="M403.612 269.922H438.461V235.078H403.612V269.922Z" fill="#5D2B29"/>
<path fill-rule="evenodd" clip-rule="evenodd" d="M194.544 304.758H229.387V269.92H194.544V304.758Z" fill="white"/>
<path fill-rule="evenodd" clip-rule="evenodd" d="M264.231 165.383H299.079V130.53H264.231V165.383Z" fill="white"/>
<path fill-rule="evenodd" clip-rule="evenodd" d="M333.927 374.462H368.77V339.618H333.927V374.462Z" fill="white"/>
<path fill-rule="evenodd" clip-rule="evenodd" d="M298.631 270.276H333.474V235.433H298.631V270.276Z" fill="white"/>
<path fill-rule="evenodd" clip-rule="evenodd" d="M299.433 409.097H334.276V374.253H299.433V409.097Z" fill="white"/>
<path fill-rule="evenodd" clip-rule="evenodd" d="M229.387 339.613H264.23V304.76H229.387V339.613Z" fill="white"/>
<path fill-rule="evenodd" clip-rule="evenodd" d="M264.231 374.462H299.079V339.618H264.231V374.462Z" fill="white"/>
<path fill-rule="evenodd" clip-rule="evenodd" d="M368.77 339.613H403.613V304.76H368.77V339.613Z" fill="white"/>
<path fill-rule="evenodd" clip-rule="evenodd" d="M159.7 269.922H194.544V235.078H159.7V269.922Z" fill="white"/>
<path fill-rule="evenodd" clip-rule="evenodd" d="M194.544 235.073H229.387V200.23H194.544V235.073Z" fill="white"/>
<path fill-rule="evenodd" clip-rule="evenodd" d="M229.387 200.228H264.23V165.385H229.387V200.228Z" fill="white"/>
<path fill-rule="evenodd" clip-rule="evenodd" d="M299.077 130.528H333.926V95.69H299.077V130.528Z" fill="white"/>
<path fill-rule="evenodd" clip-rule="evenodd" d="M333.927 165.383H368.77V130.53H333.927V165.383Z" fill="white"/>
<path fill-rule="evenodd" clip-rule="evenodd" d="M368.77 200.228H403.613V165.385H368.77V200.228Z" fill="white"/>
<path fill-rule="evenodd" clip-rule="evenodd" d="M403.612 304.758H438.461V269.92H403.612V304.758Z" fill="white"/>
<path fill-rule="evenodd" clip-rule="evenodd" d="M403.612 235.073H438.461V200.23H403.612V235.073Z" fill="white"/>
<path fill-rule="evenodd" clip-rule="evenodd" d="M438.461 269.922H473.304V235.078H438.461V269.922Z" fill="white"/>
<path fill-rule="evenodd" clip-rule="evenodd" d="M90 269.922H124.848V235.078H90V269.922Z" fill="#ED1C24"/>
<path fill-rule="evenodd" clip-rule="evenodd" d="M124.848 304.758H159.696V269.92H124.848V304.758Z" fill="#ED1C24"/>
<path fill-rule="evenodd" clip-rule="evenodd" d="M124.848 269.922H159.696V235.078H124.848V269.922Z" fill="#ED1C24"/>
<path fill-rule="evenodd" clip-rule="evenodd" d="M124.848 235.073H159.696V200.23H124.848V235.073Z" fill="#ED1C24"/>
<path fill-rule="evenodd" clip-rule="evenodd" d="M159.7 304.758H194.544V269.92H159.7V304.758Z" fill="#ED1C24"/>
<path fill-rule="evenodd" clip-rule="evenodd" d="M159.7 235.073H194.544V200.23H159.7V235.073Z" fill="#ED1C24"/>
<path fill-rule="evenodd" clip-rule="evenodd" d="M229.387 130.528H264.23V95.69H229.387V130.528Z" fill="#ED1C24"/>
<path fill-rule="evenodd" clip-rule="evenodd" d="M264.231 444.142H299.079V409.303H264.231V444.142Z" fill="#ED1C24"/>
<path fill-rule="evenodd" clip-rule="evenodd" d="M159.7 339.613H194.544V304.76H159.7V339.613Z" fill="#ED1C24"/>
<path fill-rule="evenodd" clip-rule="evenodd" d="M194.544 374.462H229.387V339.618H194.544V374.462Z" fill="#ED1C24"/>
<path fill-rule="evenodd" clip-rule="evenodd" d="M194.544 339.613H229.387V304.76H194.544V339.613Z" fill="#ED1C24"/>
<path fill-rule="evenodd" clip-rule="evenodd" d="M229.387 409.303H264.23V374.46H229.387V409.303Z" fill="#ED1C24"/>
<path fill-rule="evenodd" clip-rule="evenodd" d="M229.387 374.462H264.23V339.618H229.387V374.462Z" fill="#ED1C24"/>
<path fill-rule="evenodd" clip-rule="evenodd" d="M264.231 409.303H299.079V374.46H264.231V409.303Z" fill="#ED1C24"/>
<path fill-rule="evenodd" clip-rule="evenodd" d="M299.077 478.996H333.926V444.143H299.077V478.996Z" fill="#ED1C24"/>
<path fill-rule="evenodd" clip-rule="evenodd" d="M299.077 444.142H333.926V409.303H299.077V444.142Z" fill="#ED1C24"/>
<path fill-rule="evenodd" clip-rule="evenodd" d="M333.927 444.142H368.77V409.303H333.927V444.142Z" fill="#ED1C24"/>
<path fill-rule="evenodd" clip-rule="evenodd" d="M333.927 409.303H368.77V374.46H333.927V409.303Z" fill="#ED1C24"/>
<path fill-rule="evenodd" clip-rule="evenodd" d="M368.77 409.303H403.613V374.46H368.77V409.303Z" fill="#ED1C24"/>
<path fill-rule="evenodd" clip-rule="evenodd" d="M368.77 374.462H403.613V339.618H368.77V374.462Z" fill="#ED1C24"/>
<path fill-rule="evenodd" clip-rule="evenodd" d="M159.7 200.228H194.544V165.385H159.7V200.228Z" fill="#ED1C24"/>
<path fill-rule="evenodd" clip-rule="evenodd" d="M194.544 200.228H229.387V165.385H194.544V200.228Z" fill="#ED1C24"/>
<path fill-rule="evenodd" clip-rule="evenodd" d="M194.544 165.383H229.387V130.53H194.544V165.383Z" fill="#ED1C24"/>
<path fill-rule="evenodd" clip-rule="evenodd" d="M229.387 165.383H264.23V130.53H229.387V165.383Z" fill="#ED1C24"/>
<path fill-rule="evenodd" clip-rule="evenodd" d="M264.231 130.528H299.079V95.69H264.231V130.528Z" fill="#ED1C24"/>
<path fill-rule="evenodd" clip-rule="evenodd" d="M264.231 95.6899H299.079V60.8467H264.231V95.6899Z" fill="#ED1C24"/>
<path fill-rule="evenodd" clip-rule="evenodd" d="M299.077 95.6899H333.926V60.8467H299.077V95.6899Z" fill="#ED1C24"/>
<path fill-rule="evenodd" clip-rule="evenodd" d="M299.077 60.8432H333.926V26H299.077V60.8432Z" fill="#ED1C24"/>
<path fill-rule="evenodd" clip-rule="evenodd" d="M333.927 130.528H368.77V95.69H333.927V130.528Z" fill="#ED1C24"/>
<path fill-rule="evenodd" clip-rule="evenodd" d="M333.927 95.6899H368.77V60.8467H333.927V95.6899Z" fill="#ED1C24"/>
<path fill-rule="evenodd" clip-rule="evenodd" d="M368.77 165.383H403.613V130.53H368.77V165.383Z" fill="#ED1C24"/>
<path fill-rule="evenodd" clip-rule="evenodd" d="M368.77 130.528H403.613V95.69H368.77V130.528Z" fill="#ED1C24"/>
<path fill-rule="evenodd" clip-rule="evenodd" d="M403.612 374.462H438.461V339.618H403.612V374.462Z" fill="#ED1C24"/>
<path fill-rule="evenodd" clip-rule="evenodd" d="M403.612 339.613H438.461V304.76H403.612V339.613Z" fill="#ED1C24"/>
<path fill-rule="evenodd" clip-rule="evenodd" d="M403.612 200.228H438.461V165.385H403.612V200.228Z" fill="#ED1C24"/>
<path fill-rule="evenodd" clip-rule="evenodd" d="M403.612 165.383H438.461V130.53H403.612V165.383Z" fill="#ED1C24"/>
<path fill-rule="evenodd" clip-rule="evenodd" d="M438.461 339.613H473.304V304.76H438.461V339.613Z" fill="#ED1C24"/>
<path fill-rule="evenodd" clip-rule="evenodd" d="M438.461 304.758H473.304V269.92H438.461V304.758Z" fill="#ED1C24"/>
<path fill-rule="evenodd" clip-rule="evenodd" d="M438.461 235.073H473.304V200.23H438.461V235.073Z" fill="#ED1C24"/>
<path fill-rule="evenodd" clip-rule="evenodd" d="M438.461 200.228H473.304V165.385H438.461V200.228Z" fill="#ED1C24"/>
<path fill-rule="evenodd" clip-rule="evenodd" d="M473.308 304.758H508.156V269.92H473.308V304.758Z" fill="#ED1C24"/>
<path fill-rule="evenodd" clip-rule="evenodd" d="M473.308 269.922H508.156V235.078H473.308V269.922Z" fill="#ED1C24"/>
<path fill-rule="evenodd" clip-rule="evenodd" d="M473.308 235.073H508.156V200.23H473.308V235.073Z" fill="#ED1C24"/>
<path fill-rule="evenodd" clip-rule="evenodd" d="M508.157 269.922H543V235.078H508.157V269.922Z" fill="#ED1C24"/>
</g>
<defs>
<filter id="filter0_d" x="0" y="0" width="633" height="632.996" filterUnits="userSpaceOnUse" color-interpolation-filters="sRGB">
<feFlood flood-opacity="0" result="BackgroundImageFix"/>
<feColorMatrix in="SourceAlpha" type="matrix" values="0 0 0 0 0 0 0 0 0 0 0 0 0 0 0 0 0 0 127 0"/>
<feOffset dy="64"/>
<feGaussianBlur stdDeviation="45"/>
<feColorMatrix type="matrix" values="0 0 0 0 0.929412 0 0 0 0 0.109804 0 0 0 0 0.141176 0 0 0 0.37 0"/>
<feBlend mode="normal" in2="BackgroundImageFix" result="effect1_dropShadow"/>
<feBlend mode="normal" in="SourceGraphic" in2="effect1_dropShadow" result="shape"/>
</filter>
</defs>
</svg>
