<svg width="581" height="580" viewBox="0 0 581 580" fill="none" xmlns="http://www.w3.org/2000/svg">
<g filter="url(#filter0_d)">
<path fill-rule="evenodd" clip-rule="evenodd" d="M275.153 241.845H305.848V211.154H275.153V241.845Z" fill="#E7E8E9"/>
<path fill-rule="evenodd" clip-rule="evenodd" d="M244.46 272.53H275.154V241.844H244.46V272.53Z" fill="#ED1C24"/>
<path fill-rule="evenodd" clip-rule="evenodd" d="M275.153 272.53H305.848V241.844H275.153V272.53Z" fill="#ED1C24"/>
<path fill-rule="evenodd" clip-rule="evenodd" d="M275.153 180.458H305.848V149.768H275.153V180.458Z" fill="#ED1C24"/>
<path fill-rule="evenodd" clip-rule="evenodd" d="M305.85 272.53H336.54V241.844H305.85V272.53Z" fill="#ED1C24"/>
<path fill-rule="evenodd" clip-rule="evenodd" d="M305.85 211.151H336.54V180.461H305.85V211.151Z" fill="#ED1C24"/>
<path fill-rule="evenodd" clip-rule="evenodd" d="M275.153 303.23H305.848V272.531H275.153V303.23Z" fill="#ED1C24"/>
<path fill-rule="evenodd" clip-rule="evenodd" d="M336.54 241.845H367.23V211.154H336.54V241.845Z" fill="#ED1C24"/>
<path fill-rule="evenodd" clip-rule="evenodd" d="M213.77 241.845H244.46V211.154H213.77V241.845Z" fill="#ED1C24"/>
<path fill-rule="evenodd" clip-rule="evenodd" d="M244.46 241.845H275.154V211.154H244.46V241.845Z" fill="#ED1C24"/>
<path fill-rule="evenodd" clip-rule="evenodd" d="M244.46 211.151H275.154V180.461H244.46V211.151Z" fill="#ED1C24"/>
<path fill-rule="evenodd" clip-rule="evenodd" d="M275.153 211.151H305.848V180.461H275.153V211.151Z" fill="#ED1C24"/>
<path fill-rule="evenodd" clip-rule="evenodd" d="M305.85 241.845H336.54V211.154H305.85V241.845Z" fill="#ED1C24"/>
<path fill-rule="evenodd" clip-rule="evenodd" d="M213.77 272.53H244.46V241.844H213.77V272.53Z" fill="#5D2B29"/>
<path fill-rule="evenodd" clip-rule="evenodd" d="M244.46 303.23H275.154V272.531H244.46V303.23Z" fill="#5D2B29"/>
<path fill-rule="evenodd" clip-rule="evenodd" d="M275.153 333.925H305.848V303.234H275.153V333.925Z" fill="#5D2B29"/>
<path fill-rule="evenodd" clip-rule="evenodd" d="M305.85 303.23H336.54V272.531H305.85V303.23Z" fill="#5D2B29"/>
<path fill-rule="evenodd" clip-rule="evenodd" d="M336.54 272.53H367.23V241.844H336.54V272.53Z" fill="#5D2B29"/>
<path fill-rule="evenodd" clip-rule="evenodd" d="M183.08 241.845H213.77V211.154H183.08V241.845Z" fill="#5D2B29"/>
<path fill-rule="evenodd" clip-rule="evenodd" d="M213.77 211.151H244.46V180.461H213.77V211.151Z" fill="#5D2B29"/>
<path fill-rule="evenodd" clip-rule="evenodd" d="M244.46 180.458H275.154V149.768H244.46V180.458Z" fill="#5D2B29"/>
<path fill-rule="evenodd" clip-rule="evenodd" d="M275.153 149.767H305.848V119.068H275.153V149.767Z" fill="#5D2B29"/>
<path fill-rule="evenodd" clip-rule="evenodd" d="M305.85 180.458H336.54V149.768H305.85V180.458Z" fill="#5D2B29"/>
<path fill-rule="evenodd" clip-rule="evenodd" d="M336.54 211.151H367.23V180.461H336.54V211.151Z" fill="#5D2B29"/>
<path fill-rule="evenodd" clip-rule="evenodd" d="M367.229 241.845H397.924V211.154H367.229V241.845Z" fill="#5D2B29"/>
<path fill-rule="evenodd" clip-rule="evenodd" d="M183.08 272.53H213.77V241.844H183.08V272.53Z" fill="white"/>
<path fill-rule="evenodd" clip-rule="evenodd" d="M244.46 149.767H275.154V119.068H244.46V149.767Z" fill="white"/>
<path fill-rule="evenodd" clip-rule="evenodd" d="M305.85 333.925H336.54V303.234H305.85V333.925Z" fill="white"/>
<path fill-rule="evenodd" clip-rule="evenodd" d="M274.76 242.157H305.451V211.467H274.76V242.157Z" fill="white"/>
<path fill-rule="evenodd" clip-rule="evenodd" d="M275.467 364.432H306.157V333.742H275.467V364.432Z" fill="white"/>
<path fill-rule="evenodd" clip-rule="evenodd" d="M213.77 303.23H244.46V272.531H213.77V303.23Z" fill="white"/>
<path fill-rule="evenodd" clip-rule="evenodd" d="M244.46 333.925H275.154V303.234H244.46V333.925Z" fill="white"/>
<path fill-rule="evenodd" clip-rule="evenodd" d="M336.54 303.23H367.23V272.531H336.54V303.23Z" fill="white"/>
<path fill-rule="evenodd" clip-rule="evenodd" d="M152.389 241.845H183.079V211.154H152.389V241.845Z" fill="white"/>
<path fill-rule="evenodd" clip-rule="evenodd" d="M183.08 211.151H213.77V180.461H183.08V211.151Z" fill="white"/>
<path fill-rule="evenodd" clip-rule="evenodd" d="M213.77 180.458H244.46V149.768H213.77V180.458Z" fill="white"/>
<path fill-rule="evenodd" clip-rule="evenodd" d="M275.153 119.067H305.848V88.3809H275.153V119.067Z" fill="white"/>
<path fill-rule="evenodd" clip-rule="evenodd" d="M305.85 149.767H336.54V119.068H305.85V149.767Z" fill="white"/>
<path fill-rule="evenodd" clip-rule="evenodd" d="M336.54 180.458H367.23V149.768H336.54V180.458Z" fill="white"/>
<path fill-rule="evenodd" clip-rule="evenodd" d="M367.229 272.53H397.924V241.844H367.229V272.53Z" fill="white"/>
<path fill-rule="evenodd" clip-rule="evenodd" d="M367.229 211.151H397.924V180.461H367.229V211.151Z" fill="white"/>
<path fill-rule="evenodd" clip-rule="evenodd" d="M397.924 241.845H428.615V211.154H397.924V241.845Z" fill="white"/>
<path fill-rule="evenodd" clip-rule="evenodd" d="M90.9961 241.845H121.691V211.154H90.9961V241.845Z" fill="#ED1C24"/>
<path fill-rule="evenodd" clip-rule="evenodd" d="M121.69 272.53H152.385V241.844H121.69V272.53Z" fill="#ED1C24"/>
<path fill-rule="evenodd" clip-rule="evenodd" d="M121.69 241.845H152.385V211.154H121.69V241.845Z" fill="#ED1C24"/>
<path fill-rule="evenodd" clip-rule="evenodd" d="M121.69 211.151H152.385V180.461H121.69V211.151Z" fill="#ED1C24"/>
<path fill-rule="evenodd" clip-rule="evenodd" d="M152.389 272.53H183.079V241.844H152.389V272.53Z" fill="#ED1C24"/>
<path fill-rule="evenodd" clip-rule="evenodd" d="M152.389 211.151H183.079V180.461H152.389V211.151Z" fill="#ED1C24"/>
<path fill-rule="evenodd" clip-rule="evenodd" d="M213.77 119.067H244.46V88.3809H213.77V119.067Z" fill="#ED1C24"/>
<path fill-rule="evenodd" clip-rule="evenodd" d="M244.46 395.299H275.154V364.613H244.46V395.299Z" fill="#ED1C24"/>
<path fill-rule="evenodd" clip-rule="evenodd" d="M152.389 303.23H183.079V272.531H152.389V303.23Z" fill="#ED1C24"/>
<path fill-rule="evenodd" clip-rule="evenodd" d="M183.08 333.925H213.77V303.234H183.08V333.925Z" fill="#ED1C24"/>
<path fill-rule="evenodd" clip-rule="evenodd" d="M183.08 303.23H213.77V272.531H183.08V303.23Z" fill="#ED1C24"/>
<path fill-rule="evenodd" clip-rule="evenodd" d="M213.77 364.614H244.46V333.924H213.77V364.614Z" fill="#ED1C24"/>
<path fill-rule="evenodd" clip-rule="evenodd" d="M213.77 333.925H244.46V303.234H213.77V333.925Z" fill="#ED1C24"/>
<path fill-rule="evenodd" clip-rule="evenodd" d="M244.46 364.614H275.154V333.924H244.46V364.614Z" fill="#ED1C24"/>
<path fill-rule="evenodd" clip-rule="evenodd" d="M275.153 426H305.848V395.301H275.153V426Z" fill="#ED1C24"/>
<path fill-rule="evenodd" clip-rule="evenodd" d="M275.153 395.299H305.848V364.613H275.153V395.299Z" fill="#ED1C24"/>
<path fill-rule="evenodd" clip-rule="evenodd" d="M305.85 395.299H336.54V364.613H305.85V395.299Z" fill="#ED1C24"/>
<path fill-rule="evenodd" clip-rule="evenodd" d="M305.85 364.614H336.54V333.924H305.85V364.614Z" fill="#ED1C24"/>
<path fill-rule="evenodd" clip-rule="evenodd" d="M336.54 364.614H367.23V333.924H336.54V364.614Z" fill="#ED1C24"/>
<path fill-rule="evenodd" clip-rule="evenodd" d="M336.54 333.925H367.23V303.234H336.54V333.925Z" fill="#ED1C24"/>
<path fill-rule="evenodd" clip-rule="evenodd" d="M152.389 180.458H183.079V149.768H152.389V180.458Z" fill="#ED1C24"/>
<path fill-rule="evenodd" clip-rule="evenodd" d="M183.08 180.458H213.77V149.768H183.08V180.458Z" fill="#ED1C24"/>
<path fill-rule="evenodd" clip-rule="evenodd" d="M183.08 149.767H213.77V119.068H183.08V149.767Z" fill="#ED1C24"/>
<path fill-rule="evenodd" clip-rule="evenodd" d="M213.77 149.767H244.46V119.068H213.77V149.767Z" fill="#ED1C24"/>
<path fill-rule="evenodd" clip-rule="evenodd" d="M244.46 119.067H275.154V88.3809H244.46V119.067Z" fill="#ED1C24"/>
<path fill-rule="evenodd" clip-rule="evenodd" d="M244.46 88.3798H275.154V57.6895H244.46V88.3798Z" fill="#ED1C24"/>
<path fill-rule="evenodd" clip-rule="evenodd" d="M275.153 88.3798H305.848V57.6895H275.153V88.3798Z" fill="#ED1C24"/>
<path fill-rule="evenodd" clip-rule="evenodd" d="M275.153 57.6864H305.848V26.9961H275.153V57.6864Z" fill="#ED1C24"/>
<path fill-rule="evenodd" clip-rule="evenodd" d="M305.85 119.067H336.54V88.3809H305.85V119.067Z" fill="#ED1C24"/>
<path fill-rule="evenodd" clip-rule="evenodd" d="M305.85 88.3798H336.54V57.6895H305.85V88.3798Z" fill="#ED1C24"/>
<path fill-rule="evenodd" clip-rule="evenodd" d="M336.54 149.767H367.23V119.068H336.54V149.767Z" fill="#ED1C24"/>
<path fill-rule="evenodd" clip-rule="evenodd" d="M336.54 119.067H367.23V88.3809H336.54V119.067Z" fill="#ED1C24"/>
<path fill-rule="evenodd" clip-rule="evenodd" d="M367.229 333.925H397.924V303.234H367.229V333.925Z" fill="#ED1C24"/>
<path fill-rule="evenodd" clip-rule="evenodd" d="M367.229 303.23H397.924V272.531H367.229V303.23Z" fill="#ED1C24"/>
<path fill-rule="evenodd" clip-rule="evenodd" d="M367.229 180.458H397.924V149.768H367.229V180.458Z" fill="#ED1C24"/>
<path fill-rule="evenodd" clip-rule="evenodd" d="M367.229 149.767H397.924V119.068H367.229V149.767Z" fill="#ED1C24"/>
<path fill-rule="evenodd" clip-rule="evenodd" d="M397.924 303.23H428.615V272.531H397.924V303.23Z" fill="#ED1C24"/>
<path fill-rule="evenodd" clip-rule="evenodd" d="M397.924 272.53H428.615V241.844H397.924V272.53Z" fill="#ED1C24"/>
<path fill-rule="evenodd" clip-rule="evenodd" d="M397.924 211.151H428.615V180.461H397.924V211.151Z" fill="#ED1C24"/>
<path fill-rule="evenodd" clip-rule="evenodd" d="M397.924 180.458H428.615V149.768H397.924V180.458Z" fill="#ED1C24"/>
<path fill-rule="evenodd" clip-rule="evenodd" d="M428.619 272.53H459.313V241.844H428.619V272.53Z" fill="#ED1C24"/>
<path fill-rule="evenodd" clip-rule="evenodd" d="M428.619 241.845H459.313V211.154H428.619V241.845Z" fill="#ED1C24"/>
<path fill-rule="evenodd" clip-rule="evenodd" d="M428.619 211.151H459.313V180.461H428.619V211.151Z" fill="#ED1C24"/>
<path fill-rule="evenodd" clip-rule="evenodd" d="M459.312 241.845H490.003V211.154H459.312V241.845Z" fill="#ED1C24"/>
</g>
<defs>
<filter id="filter0_d" x="0.996094" y="0.996094" width="579.007" height="579.003" filterUnits="userSpaceOnUse" color-interpolation-filters="sRGB">
<feFlood flood-opacity="0" result="BackgroundImageFix"/>
<feColorMatrix in="SourceAlpha" type="matrix" values="0 0 0 0 0 0 0 0 0 0 0 0 0 0 0 0 0 0 127 0"/>
<feOffset dy="64"/>
<feGaussianBlur stdDeviation="45"/>
<feColorMatrix type="matrix" values="0 0 0 0 0.929412 0 0 0 0 0.109804 0 0 0 0 0.141176 0 0 0 0.37 0"/>
<feBlend mode="normal" in2="BackgroundImageFix" result="effect1_dropShadow"/>
<feBlend mode="normal" in="SourceGraphic" in2="effect1_dropShadow" result="shape"/>
</filter>
</defs>
</svg>
