<?xml version="1.0" encoding="utf-8"?>
<!-- Generator: Adobe Illustrator 21.1.0, SVG Export Plug-In . SVG Version: 6.00 Build 0)  -->
<svg version="1.1" id="Layer_1" xmlns="http://www.w3.org/2000/svg" xmlns:xlink="http://www.w3.org/1999/xlink" x="0px" y="0px"
	 viewBox="0 0 84 36" style="enable-background:new 0 0 84 36;" xml:space="preserve">
<style type="text/css">
	.st0{fill:#FFFFFF;}
</style>
<path class="st0" d="M0.3,0.5h7V28h-7V0.5z M21.9,28.3c-2.1,0-4.1-0.4-5.8-1.3c-1.7-0.9-3.1-2.1-4.1-3.7c-1-1.6-1.4-3.4-1.4-5.4
	c0-2,0.5-3.7,1.4-5.3c1-1.6,2.3-2.8,4-3.7c1.7-0.9,3.7-1.3,5.8-1.3c2.2,0,4.1,0.4,5.8,1.3c1.7,0.9,3.1,2.1,4,3.7
	c1,1.6,1.4,3.3,1.4,5.3s-0.5,3.8-1.4,5.4c-1,1.6-2.3,2.8-4,3.7C26,27.9,24.1,28.3,21.9,28.3z M21.9,22.7c1.2,0,2.2-0.4,3-1.3
	c0.8-0.9,1.2-2,1.2-3.6c0-1.5-0.4-2.6-1.2-3.5c-0.8-0.8-1.8-1.3-3-1.3c-1.2,0-2.2,0.4-3,1.3c-0.8,0.8-1.2,2-1.2,3.5
	c0,1.5,0.4,2.7,1.2,3.6C19.7,22.3,20.7,22.7,21.9,22.7z M58.1,7.9v16.4c0,3.7-1,6.5-3,8.4c-2,1.9-4.9,2.8-8.7,2.8
	c-2,0-3.8-0.2-5.5-0.7s-3.2-1.1-4.4-2l2.6-4.9c0.8,0.7,1.8,1.2,3.1,1.6c1.3,0.4,2.5,0.6,3.7,0.6c1.9,0,3.2-0.4,4.1-1.2
	c0.9-0.8,1.3-2,1.3-3.6v-0.7c-1.4,1.6-3.3,2.4-6,2.4c-1.8,0-3.4-0.4-4.9-1.2c-1.5-0.8-2.7-1.9-3.6-3.4c-0.9-1.5-1.3-3.2-1.3-5.1
	c0-1.9,0.4-3.6,1.3-5c0.9-1.5,2.1-2.6,3.6-3.4c1.5-0.8,3.1-1.2,4.9-1.2c2.9,0,5,0.9,6.3,2.8V7.9H58.1z M46.7,21.4
	c1.3,0,2.3-0.4,3.1-1.1c0.8-0.8,1.3-1.8,1.3-3s-0.4-2.2-1.2-2.9c-0.8-0.8-1.9-1.1-3.1-1.1s-2.3,0.4-3.2,1.1
	c-0.8,0.7-1.2,1.7-1.2,2.9s0.4,2.2,1.3,3S45.5,21.4,46.7,21.4z M72.7,28.3c-2.1,0-4.1-0.4-5.8-1.3c-1.7-0.9-3.1-2.1-4.1-3.7
	c-1-1.6-1.4-3.4-1.4-5.4c0-2,0.5-3.7,1.4-5.3c1-1.6,2.3-2.8,4-3.7c1.7-0.9,3.7-1.3,5.8-1.3s4.1,0.4,5.8,1.3c1.7,0.9,3.1,2.1,4,3.7
	c1,1.6,1.4,3.3,1.4,5.3s-0.5,3.8-1.4,5.4c-1,1.6-2.3,2.8-4,3.7C76.8,27.9,74.8,28.3,72.7,28.3z M72.7,22.7c1.2,0,2.2-0.4,3-1.3
	c0.8-0.9,1.2-2,1.2-3.6c0-1.5-0.4-2.6-1.2-3.5c-0.8-0.8-1.8-1.3-3-1.3s-2.2,0.4-3,1.3c-0.8,0.8-1.2,2-1.2,3.5c0,1.5,0.4,2.7,1.2,3.6
	C70.4,22.3,71.4,22.7,72.7,22.7z"/>
</svg>
