<svg width="20" height="13" viewBox="0 0 20 13" fill="none" xmlns="http://www.w3.org/2000/svg">
<path d="M19.5371 1.75391C19.4629 2.125 19.166 2.75586 18.6465 3.60938C18.2754 4.24023 17.8301 4.94531 17.3105 5.76172C16.8652 6.42969 16.6055 6.76367 16.6055 6.76367C16.457 6.98633 16.3828 7.17188 16.3828 7.2832C16.3828 7.43164 16.457 7.58008 16.6055 7.72852L16.9395 8.09961C18.7207 9.95508 19.7227 11.2168 19.9453 11.8848C20.0195 12.1816 19.9824 12.4414 19.834 12.5898C19.6855 12.7383 19.5 12.8125 19.2031 12.8125H17.0137C16.7168 12.8125 16.4941 12.7383 16.2715 12.5527C16.123 12.4785 15.8262 12.2188 15.4551 11.7734C15.084 11.3281 14.75 10.957 14.4531 10.6602C13.4512 9.73242 12.709 9.25 12.2637 9.25C12.041 9.25 11.8926 9.28711 11.8184 9.36133C11.7441 9.43555 11.707 9.62109 11.707 9.84375C11.6699 10.0293 11.6699 10.4004 11.6699 10.9941V11.959C11.6699 12.2559 11.5957 12.4785 11.4473 12.5898C11.2246 12.7383 10.7793 12.8125 10.1113 12.8125C8.92383 12.8125 7.77344 12.4785 6.58594 11.7734C5.39844 11.1055 4.35938 10.1035 3.46875 8.80469C2.61523 7.69141 1.91016 6.54102 1.35352 5.35352C0.908203 4.46289 0.537109 3.64648 0.277344 2.86719C0.0917969 2.27344 0.0175781 1.82812 0.0175781 1.56836C0.0175781 1.16016 0.240234 0.9375 0.759766 0.9375H2.94922C3.20898 0.9375 3.39453 1.01172 3.54297 1.12305C3.69141 1.27148 3.80273 1.49414 3.91406 1.79102C4.24805 2.79297 4.65625 3.75781 5.17578 4.68555C5.62109 5.57617 6.06641 6.28125 6.51172 6.80078C6.95703 7.35742 7.29102 7.61719 7.55078 7.61719C7.69922 7.61719 7.77344 7.58008 7.84766 7.46875C7.92188 7.35742 7.95898 7.13477 7.95898 6.80078V3.57227C7.92188 3.20117 7.84766 2.83008 7.69922 2.5332C7.625 2.38477 7.47656 2.19922 7.32812 1.97656C7.14258 1.75391 7.06836 1.60547 7.06836 1.45703C7.06836 1.30859 7.10547 1.19727 7.2168 1.08594C7.32812 1.01172 7.47656 0.9375 7.625 0.9375H11.0762C11.2988 0.9375 11.4473 1.01172 11.5215 1.12305C11.5957 1.27148 11.6699 1.45703 11.6699 1.75391V6.05859C11.6699 6.28125 11.707 6.4668 11.7812 6.54102C11.8555 6.65234 11.9297 6.68945 12.041 6.68945C12.1523 6.68945 12.3008 6.65234 12.4492 6.57812C12.5977 6.50391 12.7832 6.31836 13.043 6.02148C13.4883 5.50195 13.9707 4.87109 14.4531 4.0918C14.75 3.57227 15.084 2.97852 15.3809 2.31055L15.752 1.56836C15.9004 1.16016 16.2344 0.9375 16.6797 0.9375H18.8691C19.4629 0.9375 19.6855 1.23438 19.5371 1.75391Z" fill="white"/>
</svg>
