<svg width="18" height="15" viewBox="0 0 18 15" fill="none" xmlns="http://www.w3.org/2000/svg">
<path d="M17.2754 2.04883C17.3496 1.5293 17.3125 1.19531 17.0898 0.972656C16.8672 0.75 16.5703 0.712891 16.1992 0.824219L1.4668 6.50195C0.947266 6.72461 0.6875 6.94727 0.6875 7.16992C0.650391 7.42969 0.835938 7.61523 1.28125 7.72656L5.06641 8.91406L13.8242 3.38477C13.9355 3.31055 14.0469 3.27344 14.1582 3.27344C14.2695 3.27344 14.3438 3.27344 14.3809 3.34766C14.418 3.42188 14.3809 3.45898 14.3066 3.5332L7.21875 9.95312L6.92188 13.8496C7.10742 13.8496 7.25586 13.8125 7.4043 13.7383C7.47852 13.7012 7.55273 13.627 7.70117 13.4785L9.55664 11.6973L13.3789 14.5176C13.7129 14.7402 14.0098 14.7773 14.2324 14.666C14.4551 14.5547 14.6406 14.2949 14.752 13.8496L17.2754 2.04883Z" fill="white"/>
</svg>
